<svg width="682.66669" height="682.66669" viewBox="0 0 682.66669 682.66669" fill="none" stroke="currentColor"
  stroke-width="30" stroke-linecap="round" stroke-linejoin="round" stroke-miterlimit="10"
  xmlns="http://www.w3.org/2000/svg">
  <defs>
    <clipPath clipPathUnits="userSpaceOnUse" id="clipPath23">
      <path d="M 0,512 H 512 V 0 H 0 Z" />
    </clipPath>
  </defs>
  <g transform="matrix(1.3333333,0,0,-1.3333333,0,682.66667)">
    <g clip-path="url(#clipPath23)">
      <g transform="translate(248.5693,263.4307)">
        <path d="m 0,0 c 0,0 26.703,-26.703 56.442,-56.442 50.915,-50.915 119.978,-79.522 191.989,-79.522" />
      </g>
      <g transform="translate(248.5693,263.4307)">
        <path
          d="m 0,0 v 155.71 c 0,42.971 -34.889,77.859 -77.859,77.859 -42.971,0 -77.851,-34.888 -77.851,-77.859 -42.971,0 -77.859,-34.88 -77.859,-77.851 0,-42.97 34.888,-77.859 77.859,-77.859 z" />
      </g>
      <g transform="translate(248.5693,263.4307)">
        <path
          d="m 0,0 -150.408,-40.303 c -41.509,-11.118 -66.171,-53.848 -55.052,-95.356 11.125,-41.508 53.847,-66.171 95.355,-55.052 11.118,-41.508 53.848,-66.171 95.356,-55.053 41.508,11.126 66.17,53.848 55.052,95.356 z" />
      </g>
      <g transform="translate(248.5693,263.4307)">
        <path
          d="m 0,0 150.408,-40.303 c 41.509,-11.118 84.23,13.544 95.356,55.052 11.118,41.509 -13.545,84.238 -55.053,95.356 11.118,41.508 -13.544,84.229 -55.052,95.355 C 94.15,216.579 51.421,191.917 40.303,150.408 Z" />
      </g>
      <g transform="translate(155.1416,356.8584)">
        <path d="M 0,0 93.428,-93.428" />
      </g>
      <g transform="translate(182.5029,149.0039)">
        <path d="M 0,0 66.066,114.427" />
      </g>
      <g transform="translate(362.9956,329.4966)">
        <path d="M 0,0 -114.426,-66.066" />
      </g>
    </g>
  </g>
</svg>