<svg height="512" viewBox="0 0 512 512" width="512" xmlns="http://www.w3.org/2000/svg" fill="currentColor">
<path d="m88.667 248.569h138.69l-82.52-82.52c-5.711-5.711-6.237-15.015-.801-20.989 5.804-6.378 15.686-6.553 21.713-.525l82.821 82.821v-138.689c0-48.717-39.862-89.21-88.576-88.661-43.366.488-79.262 32.661-85.578 74.408-41.748 6.317-73.92 42.212-74.409 85.578-.551 48.714 39.942 88.577 88.66 88.577z"/>
<path d="m370.496 195.494-97.497 56.292c.009.009.018.018.027.027 1.804 1.804 4.052 3.102 6.516 3.762l120.862 32.379c47.182 12.64 96.742-15.461 108.85-62.782 10.778-42.126-11.067-85.238-49.861-102.188 4.75-42.396-22.112-83.167-64.545-94.534-46.767-12.529-95.009 15.326-107.538 62.093-5.803 21.661-8.742 43.989-8.742 66.413v56.979c33.369-19.269 76.927-44.421 76.927-44.421 7.175-4.142 16.348-1.684 20.49 5.49 4.143 7.174 1.685 16.347-5.489 20.49z"/>
<path d="m496.508 369.533c-71.755-.135-134.281-29.859-178.222-72.521l-29.058-7.784 7.741 28.896c49.21 47.975 119.42 81.409 200.031 81.409 8.546 0 15.422-7.146 14.98-15.789-.413-8.068-7.392-14.196-15.472-14.211z"/>
<path d="m251.785 272.998-56.292 97.497c-4.142 7.175-13.314 9.634-20.49 5.49-7.174-4.142-9.632-13.316-5.49-20.49l44.415-76.927h-58.065c-21.698 0-43.303 2.844-64.262 8.459-46.562 12.474-75.298 59.92-63.457 106.647 10.925 43.111 52.055 70.513 94.84 65.719 17.08 39.093 60.727 60.975 103.16 49.606 46.767-12.529 74.623-60.77 62.094-107.537l-32.652-121.88c-.667-2.49-1.978-4.761-3.801-6.584z"/>
</svg>