<svg viewBox="0 0 1024 1024" xmlns="http://www.w3.org/2000/svg" p-id="1500" width="128" height="128"><path d="M511.205305 517.418372c0 0-61.986172 187.692395-108.222943 278.432059-30.920841 60.541273-82.503739 161.106251-82.503739 161.106251l24.707775 19.361648 34.533089-2.311839c0 0 63.142091-121.660505 88.572316-179.60096 22.395936-51.004939 64.73148-202.430365 77.735572-282.333286 1.300409-7.802455 0.14449-26.586144 6.502046-26.875123 3.756738-0.14449 5.057147 13.582052 9.680824 24.996755 21.384507 52.738818 69.788627 258.058981 189.570763 173.387893 144.634401-102.154367 25.430224-196.361789 30.631861-214.712008 10.547764-37.278397 157.060533-41.757584 101.431918-152.870326-36.266968-72.389445-158.794412-47.103711-215.723437-16.47185 0 0 116.747848-190.582193-53.605757-190.582193-77.591082 0-99.698039 60.830253-106.633554 56.640045-19.217158-11.992663-145.50134-94.207422-168.041767 47.681671-9.391844 59.096374 80.62537 143.622972 101.287428 178.73402 6.935516 11.703683 1.878369 15.315931-9.391844 2.167349-89.005785-103.310286-229.738959-143.622972-247.222238-20.951037-7.946945 55.339636 25.863694 50.571469 27.308593 77.302102 1.011429 18.061239-70.944546 76.579653-14.593481 157.927473C292.30309 745.856921 511.205305 517.418372 511.205305 517.418372z" fill="#2abf86" p-id="1501"></path></svg>