<svg enable-background="new 0 0 512 512" height="512" viewBox="0 0 512 512" width="512" xmlns="http://www.w3.org/2000/svg">
<path d="m497 369.533c-73.419 0-137.225-30.971-181.382-75.128 0 0-56.44-56.441-56.442-56.443-5.858-5.858-15.355-5.858-21.213 0s-5.858 15.355 0 21.213l56.442 56.442c49.319 49.319 120.583 83.915 202.595 83.915 8.284 0 15-6.716 15-15s-6.716-14.999-15-14.999z" fill="#00a78e"/>
<path class="leaf" d="m456.366 128.596c5.024-44.836-23.384-87.953-68.26-99.975-49.459-13.25-100.476 16.208-113.726 65.667l-38.052 142.04-142.04 38.052c-49.459 13.25-78.917 64.267-65.667 113.726 12.022 44.875 55.139 73.283 99.975 68.26 18.062 41.342 64.221 64.483 109.096 52.461 49.459-13.25 78.917-64.267 65.667-113.725l-33.571-125.314 125.314 33.571c49.459 13.25 100.476-16.208 113.725-65.667 12.022-44.875-11.119-91.034-52.461-109.096z" fill="#bee75e"/>
<path class="leaf" d="m456.366 128.596c5.024-44.836-23.384-87.953-68.26-99.975-49.459-13.25-100.476 16.208-113.726 65.667l-38.052 142.04 33.459 33.459 125.314 33.571c49.459 13.25 100.476-16.208 113.725-65.667 12.023-44.874-11.118-91.033-52.46-109.095z" fill="#00da80"/>
<path d="m375.986 175.003c-4.142-7.174-13.315-9.632-20.49-5.49 0 0-114.436 66.079-114.441 66.086-2.201 1.272-4.113 3.11-5.476 5.47l-66.066 114.426c-4.142 7.174-1.684 16.348 5.49 20.49 7.176 4.144 16.348 1.685 20.49-5.49l64.057-110.945 110.946-64.057c7.174-4.141 9.632-13.315 5.49-20.49z" fill="#00da80"/>
<path d="m259.55 259.55 110.945-64.057c7.174-4.142 9.632-13.316 5.49-20.49s-13.315-9.632-20.49-5.49c0 0-114.436 66.079-114.441 66.086-1.115.645-2.155 1.438-3.088 2.368z" fill="#00a78e"/>
<g class="leaf">
    <path d="m248.569 263.569h-155.71c-51.202 0-92.859-41.656-92.859-92.859 0-46.458 34.297-85.056 78.906-91.805 6.749-44.608 45.346-78.905 91.804-78.905 51.203 0 92.859 41.656 92.859 92.859v155.71c0 8.285-6.715 15-15 15z" fill="#dff473"/>
    <path d="m259.176 259.175c2.714-2.714 4.393-6.464 4.393-10.606v-155.71c0-51.203-41.656-92.859-92.859-92.859-46.458 0-85.055 34.297-91.804 78.905z" fill="#bee75e"/>
</g>
<path d="m259.176 237.963-93.428-93.427c-5.857-5.858-15.355-5.858-21.213 0s-5.858 15.355 0 21.213l93.428 93.427c5.857 5.858 15.355 5.858 21.213 0s5.858-15.355 0-21.213z" fill="#bee75e"/>
<path d="m259.176 237.963-93.428-93.427c-5.857-5.858-15.355-5.858-21.213 0l114.641 114.64c5.858-5.858 5.858-15.355 0-21.213z" fill="#00da80"/>
</svg>